HIERARCHY
ROOT Hips
{
	OFFSET	0	0	0
	CHANNELS 6  Xposition Yposition Zposition Xrotation Yrotation Zrotation
	JOINT Spine
	{
		OFFSET	0	7.07069	1.42098
		CHANNELS 3  Xrotation Yrotation Zrotation
		JOINT Spine1
		{
			OFFSET	0	12.118	-2.16393
			CHANNELS 3  Xrotation Yrotation Zrotation
			JOINT Spine2
			{
				OFFSET	0	9.18588	0.984588
				CHANNELS 3  Xrotation Yrotation Zrotation
				JOINT Spine3
				{
					OFFSET	0	10.9928	3.26753
					CHANNELS 3  Xrotation Yrotation Zrotation
					JOINT Spine4
					{
						OFFSET	0	16.2728	-1.66623
						CHANNELS 3  Xrotation Yrotation Zrotation
						JOINT Neck
						{
							OFFSET	0	7.76851	-5.44228
							CHANNELS 3  Xrotation Yrotation Zrotation
							JOINT Head
							{
								OFFSET	0	9.32654	-2.79147
								CHANNELS 3  Xrotation Yrotation Zrotation
								End Site
								{
									OFFSET	0	19.4537	-0.941309
								}
							}
						}
					}
					JOINT LeftShoulder
					{
						OFFSET	-4.67409	19.7783	-9.32654
						CHANNELS 3  Xrotation Yrotation Zrotation
						JOINT LeftArm
						{
							OFFSET	-10.1845	-2.79147	3.58132
							CHANNELS 3  Xrotation Yrotation Zrotation
							JOINT LeftForeArm
							{
								OFFSET	-31.5067	-1.43802	2.24891
								CHANNELS 3  Xrotation Yrotation Zrotation
								JOINT LeftHand
								{
									OFFSET	-25.4342	-1.75765	1.81547
									CHANNELS 3  Xrotation Yrotation Zrotation
									End Site
									{
										OFFSET	-9.28223	-0.641455	0.662512
									}
								}
							}
						}
					}
					JOINT RightShoulder
					{
						OFFSET	4.67409	19.7783	-9.32654
						CHANNELS 3  Xrotation Yrotation Zrotation
						JOINT RightArm
						{
							OFFSET	10.1845	-2.79147	3.58132
							CHANNELS 3  Xrotation Yrotation Zrotation
							JOINT RightForeArm
							{
								OFFSET	31.5067	-1.43802	2.24891
								CHANNELS 3  Xrotation Yrotation Zrotation
								JOINT RightHand
								{
									OFFSET	25.4342	-1.75765	1.81547
									CHANNELS 3  Xrotation Yrotation Zrotation
									End Site
									{
										OFFSET	9.28223	-0.641455	0.662512
									}
								}
							}
						}
					}
				}
			}
		}
	}
	JOINT LeftUpLeg
	{
		OFFSET	-9.61129	-3.53534	-0.71049
		CHANNELS 3  Xrotation Yrotation Zrotation
		JOINT LeftLeg
		{
			OFFSET	-2.18601	-42.8339	-0.669588
			CHANNELS 3  Xrotation Yrotation Zrotation
			JOINT LeftFoot
			{
				OFFSET	-2.13734	-39.398	3.38822
				CHANNELS 3  Xrotation Yrotation Zrotation
				JOINT LeftToeBase
				{
					OFFSET	0	-4.79061	-12.7239
					CHANNELS 3  Xrotation Yrotation Zrotation
					End Site
					{
						OFFSET	0	-1.91625	-7.66498
					}
				}
			}
		}
	}
	JOINT RightUpLeg
	{
		OFFSET	9.61129	-3.53534	-0.71049
		CHANNELS 3  Xrotation Yrotation Zrotation
		JOINT RightLeg
		{
			OFFSET	2.18601	-42.8339	-0.669588
			CHANNELS 3  Xrotation Yrotation Zrotation
			JOINT RightFoot
			{
				OFFSET	2.13734	-39.398	3.38822
				CHANNELS 3  Xrotation Yrotation Zrotation
				JOINT RightToeBase
				{
					OFFSET	0	-4.79061	-12.7239
					CHANNELS 3  Xrotation Yrotation Zrotation
					End Site
					{
						OFFSET	0	-1.91625	-7.66498
					}
				}
			}
		}
	}
}
MOTION
Frames: 12
Frame Time: 0.020408
 0 -10.0139 2.87148 -0 0 -0 -0 0 -0 -0 0 -0 -0 0 -0 -0 0 -0 -0 0 -0 -0 0 -0 -0 0 -0 -0 0 -0 -0 0 -0 -0 0 -0 -0 0 -0 -0 0 -0 -0 0 -0 -0 0 -0 -0 0 -0 -0 0 -0 -0 0 -0 -0 0 -0 -0 0 -0 -0 0 -0 -0 0 -0 -0 0 -0 -0 0 -0
 143.604 88.0822 -224.843 174.547 135.525 -152.217 0.000278714 0.00405944 -3.92766 179.665 179.992 173.454 0.522967 0.0242548 -6.5461 2.34558 0.00405944 -3.92766 173.894 179.861 178.698 163.292 -158.206 167.857 173.685 -144.289 171.975 1.3449 -12.1529 2.81947 157.815 -136.096 -120.06 71.2693 -11.2811 25.6309 -0 17.5144 0.897499 0.676697 -22.9008 -0.93871 135.141 152.396 166.507 26.6585 27.0701 -11.017 -0 -3.16604 -34.0805 44.1516 27.1699 -43.7625 127.188 -169.926 -179.622 36.0851 -0.0828137 11.5089 140.371 180 -180 19.4952 5.99887 -30.5438 142.581 178.487 -179.716 11.251 -0.066784 11.4711 0.984862 0 0
 143.276 87.9501 -225.607 175.432 137.36 -153.339 0.00018635 0.00285563 -3.73368 0.0604567 0.00568968 -6.22279 0.996393 0.017069 -6.22279 2.84416 0.00285563 -3.73368 173.479 179.859 178.764 161.631 -159.056 167.542 173.185 -145.217 171.868 1.22843 -10.8901 2.55901 156.615 -136.642 -120.103 70.7523 -11.0054 23.9123 -0 17.4977 0.896652 0.88739 -22.933 -1.23026 136.455 152.204 165.989 25.4092 26.7589 -10.4048 -0 -4.45778 -34.0614 44.807 29.0438 -45.5268 126.424 -170.148 -179.806 35.8944 -0.087444 11.5147 140.373 180 -180 19.632 6.27471 -30.5299 142.431 -179.044 -179.858 10.7399 -0.0186857 11.4697 1.02258 0 0
 142.373 87.9219 -226.194 176.474 139.031 -154.502 0.0001471 0.00234521 -3.5891 0.392784 0.00467404 -5.98183 1.39343 0.0140221 -5.98183 3.26069 0.00234521 -3.5891 173.135 179.857 178.812 160.278 -159.632 167.419 172.751 -145.69 171.766 1.16294 -10.6897 2.41997 155.129 -136.909 -120.9 70.2175 -10.4661 22.5103 -0 17.8934 1.14201 0.836104 -22.6244 -1.16665 137.087 151.874 165.811 24.6014 27.3517 -10.1589 -0 -5.51319 -34.2323 45.746 31.083 -47.5438 126.501 -170.307 -179.792 35.2994 -0.136062 11.5279 140.372 180 -180 20.4276 7.04437 -30.7293 143.452 -176.913 -179.737 10.2457 -0.04944 11.4871 1.0558 0 0
 141.525 88.0697 -226.38 177.047 140.255 -154.852 0.000353823 0.0059852 -3.38318 0.667035 0.0119333 -5.63864 1.7061 0.0357998 -5.63864 3.5544 0.0059852 -3.38318 172.966 179.862 178.881 159.581 -160.201 169.019 172.487 -145.79 172.099 1.21443 -11.6636 2.53972 153.851 -136.749 -121.488 69.6866 -9.97037 21.2001 -0 18.708 1.36869 0.986091 -22.8347 -1.37 137.825 152.044 165.327 23.5934 27.8759 -9.44736 -0 -6.48688 -34.0667 47.3229 33.2447 -49.8682 127.195 -170.266 -179.761 35.3047 -0.151676 11.5364 140.373 180 -180 21.1599 7.89156 -30.202 144.813 -175.577 -179.832 8.27875 -0.0338378 11.3356 1.08202 0 0
 141.101 88.1119 -226.411 177.493 141.397 -155.863 0.000356591 0.00643851 -3.17003 0.834037 0.012842 -5.28339 1.90677 0.0385259 -5.28339 3.76666 0.00643851 -3.17003 172.786 179.867 178.952 158.945 -160.64 170.686 172.232 -145.72 172.425 1.36402 -13.1924 2.87325 152.371 -136.79 -122.353 69.1421 -9.50361 19.3768 -0 19.9532 1.58923 1.26057 -22.7953 -1.75309 138.797 151.944 165.131 22.5846 29.1879 -9.51548 -0 -7.63445 -33.6697 49.266 35.3777 -51.5022 128.535 -169.961 -179.713 36.0029 -0.0510786 11.5048 140.374 180 -180 22.2246 8.34066 -29.8162 147.584 -174.573 179.986 7.51045 -0.0201191 11.1802 1.11642 0 0
 140.812 87.9442 -227.054 177.957 142.526 -156.772 0.000511343 0.00976341 -2.99803 0.980327 0.0194793 -4.99672 2.07046 0.0584379 -4.99672 3.91311 0.00976341 -2.99803 172.72 179.873 179.009 158.633 -160.52 171.115 172.062 -145.201 172.393 1.37223 -13.6625 2.89646 150.302 -137.081 -123.547 68.847 -9.29548 18.1012 -0 21.1397 1.75555 1.30152 -22.9051 -1.80593 139.732 152.688 164.919 21.5035 30.9847 -9.61421 -0 -8.84766 -32.9189 50.0752 38.0361 -52.8083 130.749 -169.964 179.815 37.86 -0.0455453 11.492 140.377 180 -180 22.9597 7.95306 -30.3187 149.878 -173.167 -179.915 6.85292 -0.0258208 11.0693 1.14522 0 0
 140.078 87.9331 -227.434 178.377 143.464 -157.279 0.000511797 0.0101992 -2.87269 1.10286 0.0203529 -4.78782 2.21436 0.0610586 -4.78782 4.0589 0.0101992 -2.87269 172.611 179.877 179.05 158.187 -160.369 170.688 171.876 -144.889 172.17 1.33167 -13.1735 2.80481 149.148 -137.26 -124.076 68.8799 -9.38267 18.2392 -0 22.1332 2.31993 1.11254 -23.0066 -1.54021 141.872 154.376 164.217 21.209 34.3544 -10.447 -0 -9.25558 -31.5716 50.8818 40.0628 -54.4275 132.408 -169.949 -179.957 38.557 -0.0393294 11.526 140.374 180 -180 22.4285 8.24092 -29.4592 151.727 -171.295 -179.755 6.8036 -0.0257018 11.1265 1.17193 0 0
 139.471 87.8714 -227.852 179.013 144.114 -158.268 0.000578225 0.0120819 -2.74001 1.20583 0.0241147 -4.56669 2.33694 0.0723441 -4.56669 4.18493 0.0120819 -2.74001 172.512 179.881 179.094 157.78 -160.371 170.281 171.734 -144.877 172.016 1.42848 -11.9315 2.9917 148.533 -137.991 -125.342 68.9888 -9.71122 19.0662 -0 22.5161 2.80289 1.03579 -22.8077 -1.4399 143.763 155.739 162.491 21.0655 37.7087 -11.5017 -0 -9.36837 -29.9939 51.3418 41.7683 -55.5366 132.977 -169.974 -179.877 38.6416 -0.0192594 11.5025 140.369 180 -180 22.0721 8.55972 -28.8166 153.553 -169.985 -179.673 6.31147 -0.00975385 11.2263 1.19383 0 0
 138.925 88.0438 -227.969 179.291 145.013 -158.748 0.000494786 0.0109452 -2.58834 1.30625 0.0218506 -4.31391 2.43518 0.0655518 -4.31391 4.24713 0.0109452 -2.58834 172.556 179.888 179.145 157.804 -160.425 170.122 171.764 -145.049 172.014 1.39907 -10.9379 2.91553 148.566 -138.45 -126.05 69.0765 -9.98817 20.0566 -0 22.7642 3.48706 1.28427 -22.3806 -1.80155 145.232 156.663 160.242 21.0415 40.473 -12.2702 -0 -9.27669 -28.274 51.8088 42.6215 -56.4241 133.256 -169.952 -179.975 37.6732 -0.0358428 11.4921 140.365 180 -180 21.8893 9.69445 -27.9245 155.166 -170.219 -179.604 5.34209 -0.0235206 11.3124 1.2115 0 0
 138.799 88.0556 -228.363 179.838 146.099 -159.628 0.000254104 0.00604031 -2.4089 1.32753 0.0120616 -4.01484 2.48167 0.0361849 -4.01484 4.34207 0.00604031 -2.4089 172.376 179.893 179.204 157.235 -160.602 169.823 171.59 -145.271 171.915 1.36451 -10.0129 2.82952 148.773 -138.774 -126.516 69.1334 -10.2959 20.6486 -0 23.024 4.04059 1.26107 -21.7874 -1.79056 146.635 157.227 158.641 20.8604 42.6059 -12.8706 -0 -9.08531 -26.5911 50.8555 43.1454 -56.105 133.493 -170.005 179.874 37.3346 0.0197362 11.4675 140.363 180 -180 22.4585 10.9701 -27.7274 157.255 -170.508 -179.574 3.94097 -0.0573809 11.3837 1.22221 0 0
 138.721 88.0873 -228.704 0.0241826 32.9185 20.0796 1.3866e-06 3.4396e-05 -2.3085 1.28928 6.86927e-05 -3.8475 2.44981 0.000206078 -3.8475 4.34108 3.4396e-05 -2.3085 172.307 179.897 179.237 157.029 -160.96 169.115 171.619 -146.124 171.887 1.36619 -9.0753 2.81811 148.5 -139.369 -127.226 68.7417 -10.1949 20.007 -0 23.2497 3.95742 1.38567 -21.4692 -1.98029 147.763 157.575 157.262 20.4879 44.2135 -12.9738 -0 -8.89095 -25.1108 48.8797 43.5949 -54.7358 134.243 -170.018 179.832 37.7915 0.0503981 11.4497 140.378 180 -180 24.1134 12.81 -28.243 158.505 -170.882 -179.484 3.24077 -0.0349214 11.4609 1.22762 0 0
